<?xml version="1.0" standalone="no"?>
<!DOCTYPE svg PUBLIC "-//W3C//DTD SVG 20010904//EN"
 "http://www.w3.org/TR/2001/REC-SVG-20010904/DTD/svg10.dtd">
<svg version="1.0" xmlns="http://www.w3.org/2000/svg"
 width="400.000000pt" height="400.000000pt" viewBox="0 0 400.000000 400.000000"
 preserveAspectRatio="xMidYMid meet">
<metadata>
Created by potrace 1.11, written by Peter Selinger 2001-2013
</metadata>
<g transform="translate(0.000000,400.000000) scale(0.100000,-0.100000)"
fill="#000000" stroke="none">
<path d="M1796 3868 c-44 -5 -118 -17 -165 -26 l-86 -18 -3 -1332 -2 -1332
-45 0 -45 0 0 83 -1 82 -22 -30 c-39 -53 -80 -86 -147 -119 -61 -29 -72 -31
-175 -31 -100 0 -115 2 -167 28 -105 51 -191 171 -218 302 -17 84 -16 238 3
312 38 144 127 263 242 318 56 27 68 30 175 30 101 0 121 -3 163 -24 50 -24
100 -68 129 -111 16 -23 17 32 17 887 l1 912 -82 -30 c-963 -351 -1473 -1402
-1151 -2368 256 -769 979 -1291 1788 -1291 264 0 551 63 788 172 l87 41 0 898
0 899 40 0 40 0 1 -97 0 -98 22 30 c45 62 121 128 175 153 50 23 70 26 167 27
98 0 116 -3 165 -26 102 -49 182 -158 209 -287 16 -77 14 -240 -5 -319 -35
-153 -117 -269 -231 -325 -56 -28 -79 -33 -157 -36 -124 -5 -189 19 -266 97
-30 31 -60 65 -67 76 -9 16 -12 -85 -12 -463 l-1 -483 29 17 c68 40 206 145
282 213 619 563 794 1464 429 2216 -286 590 -845 982 -1502 1054 -113 13 -289
12 -402 -1z m586 -1744 c100 -34 177 -140 198 -274 5 -36 10 -206 10 -377 l0
-313 -44 0 -45 0 -3 348 c-3 332 -4 349 -26 403 -25 63 -70 111 -124 133 -48
21 -142 20 -201 0 -64 -22 -140 -92 -174 -162 l-28 -57 -3 -332 -3 -333 -45 0
-44 0 0 480 0 480 45 0 45 0 0 -86 0 -86 33 48 c38 56 109 108 176 128 62 20
177 20 233 0z"/>
<path d="M1035 2047 c-114 -47 -179 -123 -219 -257 -19 -64 -23 -231 -6 -304
25 -111 89 -199 175 -242 51 -24 63 -26 148 -22 109 5 171 31 231 98 72 80 81
112 84 315 3 164 2 185 -18 237 -24 65 -79 127 -142 159 -52 27 -203 37 -253
16z"/>
<path d="M3201 2049 c-163 -48 -254 -229 -237 -477 9 -127 35 -192 105 -263
67 -67 124 -89 225 -89 156 0 267 106 312 297 23 99 15 268 -16 348 -29 76
-116 165 -176 183 -48 14 -164 14 -213 1z"/>
</g>
</svg>
